<svg width="355" height="356" viewBox="0 0 355 356" fill="none" xmlns="http://www.w3.org/2000/svg">
<g clip-path="url(#clip0_113_150)">
<path d="M148.709 29.2156C151.866 29.2156 154.425 26.6569 154.425 23.5004C154.425 20.344 151.866 17.7852 148.709 17.7852C145.553 17.7852 142.994 20.344 142.994 23.5004C142.994 26.6569 145.553 29.2156 148.709 29.2156Z" fill="url(#paint0_linear_113_150)"/>
<path d="M194.43 40.6448C197.586 40.6448 200.145 38.086 200.145 34.9296C200.145 31.7732 197.586 29.2144 194.43 29.2144C191.273 29.2144 188.714 31.7732 188.714 34.9296C188.714 38.086 191.273 40.6448 194.43 40.6448Z" fill="url(#paint1_linear_113_150)"/>
<path d="M171.569 23.5004C174.726 23.5004 177.284 20.9416 177.284 17.7852C177.284 14.6288 174.726 12.07 171.569 12.07C168.413 12.07 165.854 14.6288 165.854 17.7852C165.854 20.9416 168.413 23.5004 171.569 23.5004Z" fill="url(#paint2_linear_113_150)"/>
<path d="M211.574 23.5004C214.731 23.5004 217.289 20.9416 217.289 17.7852C217.289 14.6288 214.731 12.07 211.574 12.07C208.418 12.07 205.859 14.6288 205.859 17.7852C205.859 20.9416 208.418 23.5004 211.574 23.5004Z" fill="url(#paint3_linear_113_150)"/>
<path d="M165.854 46.3601C169.01 46.3601 171.569 43.8013 171.569 40.6449C171.569 37.4885 169.01 34.9297 165.854 34.9297C162.697 34.9297 160.139 37.4885 160.139 40.6449C160.139 43.8013 162.697 46.3601 165.854 46.3601Z" fill="url(#paint4_linear_113_150)"/>
<path d="M223.003 97.7958V80.6514H228.718C238.171 80.6514 245.864 72.9583 245.864 63.5057C245.864 54.0532 238.171 46.3601 228.718 46.3601H224.609L236.039 0.639648H118.526L129.956 46.3601H125.847C116.395 46.3601 108.701 54.0532 108.701 63.5057C108.701 72.9583 116.395 80.6514 125.847 80.6514H131.562V97.797C93.7449 97.797 62.981 128.561 62.981 166.378V343.546C62.981 349.849 68.1069 354.977 74.4114 354.977H280.155C286.459 354.977 291.586 349.851 291.586 343.546V166.377C291.585 128.561 260.822 97.7958 223.003 97.7958ZM171.568 12.0701H211.573H221.397L212.825 46.3601H165.852H141.741L133.168 12.0701H171.568V12.0701ZM125.848 69.221C122.693 69.221 120.133 66.661 120.133 63.5057C120.133 60.3505 122.693 57.7905 125.848 57.7905H132.815H221.76H228.721C231.876 57.7905 234.436 60.3505 234.436 63.5057C234.436 66.661 231.876 69.221 228.721 69.221H223.006H131.565H125.848ZM280.157 343.545H280.155H74.4126V166.377C74.4126 134.864 100.051 109.226 131.563 109.226H142.994V80.6502H211.575V109.226H223.006C254.518 109.226 280.157 134.864 280.157 166.377V343.545Z" fill="url(#paint5_linear_113_150)"/>
<path d="M325.877 46.3601V23.5005H314.447V46.3601H291.585V57.7905H314.447V80.6514H325.877V57.7905H348.737V46.3601H325.877Z" fill="url(#paint6_linear_113_150)"/>
<path d="M62.9812 114.941H40.1216V92.0806H28.6912V114.941H5.83154V126.372H28.6912V149.233H40.1216V126.372H62.9812V114.941Z" fill="url(#paint7_linear_113_150)"/>
</g>
<path d="M224.862 209.498C224.862 216.264 223.31 222.474 220.204 228.131C217.099 233.676 212.33 238.168 205.897 241.606C199.464 245.044 191.479 246.763 181.941 246.763H164.307V288.686H135.859V171.901H181.941C191.257 171.901 199.132 173.509 205.564 176.725C211.997 179.941 216.822 184.378 220.038 190.034C223.254 195.69 224.862 202.178 224.862 209.498ZM179.778 224.138C185.213 224.138 189.261 222.863 191.923 220.312C194.585 217.761 195.915 214.156 195.915 209.498C195.915 204.84 194.585 201.236 191.923 198.685C189.261 196.134 185.213 194.858 179.778 194.858H164.307V224.138H179.778Z" fill="url(#paint8_linear_113_150)"/>
<defs>
<linearGradient id="paint0_linear_113_150" x1="151.567" y1="16.3131" x2="142.052" y2="29.5134" gradientUnits="userSpaceOnUse">
<stop stop-color="#FF5D2B"/>
<stop offset="1" stop-color="#FFB800"/>
</linearGradient>
<linearGradient id="paint1_linear_113_150" x1="197.287" y1="27.7423" x2="187.772" y2="40.9426" gradientUnits="userSpaceOnUse">
<stop stop-color="#FF5D2B"/>
<stop offset="1" stop-color="#FFB800"/>
</linearGradient>
<linearGradient id="paint2_linear_113_150" x1="174.427" y1="10.5979" x2="164.912" y2="23.7982" gradientUnits="userSpaceOnUse">
<stop stop-color="#FF5D2B"/>
<stop offset="1" stop-color="#FFB800"/>
</linearGradient>
<linearGradient id="paint3_linear_113_150" x1="214.432" y1="10.5979" x2="204.917" y2="23.7982" gradientUnits="userSpaceOnUse">
<stop stop-color="#FF5D2B"/>
<stop offset="1" stop-color="#FFB800"/>
</linearGradient>
<linearGradient id="paint4_linear_113_150" x1="168.711" y1="33.4576" x2="159.197" y2="46.6579" gradientUnits="userSpaceOnUse">
<stop stop-color="#FF5D2B"/>
<stop offset="1" stop-color="#FFB800"/>
</linearGradient>
<linearGradient id="paint5_linear_113_150" x1="234.435" y1="-44.9947" x2="-74.5706" y2="231.58" gradientUnits="userSpaceOnUse">
<stop stop-color="#FF5D2B"/>
<stop offset="1" stop-color="#FFB800"/>
</linearGradient>
<linearGradient id="paint6_linear_113_150" x1="334.449" y1="16.1401" x2="286.876" y2="82.1413" gradientUnits="userSpaceOnUse">
<stop stop-color="#FF5D2B"/>
<stop offset="1" stop-color="#FFB800"/>
</linearGradient>
<linearGradient id="paint7_linear_113_150" x1="48.6938" y1="84.7201" x2="1.11838" y2="150.72" gradientUnits="userSpaceOnUse">
<stop stop-color="#FF5D2B"/>
<stop offset="1" stop-color="#FFB800"/>
</linearGradient>
<linearGradient id="paint8_linear_113_150" x1="203.544" y1="73.4894" x2="13.6118" y2="183.105" gradientUnits="userSpaceOnUse">
<stop stop-color="#FF5D2B"/>
<stop offset="1" stop-color="#FFB800"/>
</linearGradient>
<clipPath id="clip0_113_150">
<rect width="354.337" height="354.337" fill="white" transform="translate(0.115234 0.639648)"/>
</clipPath>
</defs>
</svg>
